<?xml version="1.0" standalone="no"?>
<!DOCTYPE svg PUBLIC "-//W3C//DTD SVG 20010904//EN"
 "http://www.w3.org/TR/2001/REC-SVG-20010904/DTD/svg10.dtd">
<svg version="1.0" xmlns="http://www.w3.org/2000/svg"
 width="700.000000pt" height="700.000000pt" viewBox="0 0 700.000000 700.000000"
 preserveAspectRatio="xMidYMid meet">
<metadata>
Created by potrace 1.11, written by Peter Selinger 2001-2013
</metadata>
<g transform="translate(0.000000,700.000000) scale(0.100000,-0.100000)"
fill="#000000" stroke="none">
<path d="M0 3500 l0 -3500 3500 0 3500 0 0 3500 0 3500 -3500 0 -3500 0 0
-3500z m2400 1521 c381 -66 697 -262 894 -554 63 -94 143 -250 153 -297 6 -33
26 -22 -227 -125 -213 -86 -193 -83 -214 -33 -140 334 -353 531 -652 605 -53
13 -112 16 -249 16 -163 -1 -188 -3 -266 -26 -76 -23 -227 -88 -254 -110 -5
-4 -32 -22 -60 -40 -67 -43 -191 -168 -244 -246 -105 -154 -180 -371 -197
-564 -16 -200 -4 -377 41 -580 10 -46 50 -150 88 -226 95 -196 260 -363 437
-443 144 -65 262 -86 473 -83 170 2 263 21 393 80 263 120 457 363 489 613 l6
52 -515 0 -516 0 0 200 0 200 735 0 735 0 0 -745 0 -745 -206 0 -206 0 5 88
c8 129 54 305 128 483 l28 69 -97 0 -98 0 -43 -88 c-62 -124 -125 -216 -206
-298 -61 -61 -175 -154 -189 -154 -3 0 -27 -13 -55 -29 -51 -31 -193 -83 -271
-100 -158 -35 -384 -33 -567 5 -515 106 -889 512 -1014 1099 -47 223 -44 655
5 840 2 6 6 24 11 40 25 96 91 263 135 340 13 22 28 49 34 60 18 34 77 117
119 170 71 88 278 285 300 285 3 0 29 16 58 36 136 92 406 190 599 217 55 8
419 -1 480 -12z m3930 -236 l0 -195 -875 0 -875 0 0 -480 0 -480 691 0 691 0
-5 -192 c-3 -106 -6 -193 -6 -193 -1 0 -200 -1 -444 -2 -243 -1 -551 -2 -684
-3 l-243 0 0 -635 0 -635 -210 0 -210 0 0 1505 0 1505 1085 0 1085 0 0 -195z"/>
</g>
</svg>
