<svg class="discover" version="1.1" id="Layer_1" xmlns="http://www.w3.org/2000/svg" x="0" y="0" viewBox="0 0 476.5 100.2" xml:space="preserve"><style>.st0{fill:#fff}</style><g id="Laag_2"><g id="Laag_1-2"><path class="st0" d="M0 63c0-22.4 15.4-37.1 36.8-37.1S73.6 40.6 73.6 63c0 22.8-15.4 37.2-36.8 37.2S0 84.6 0 63zm52.9.3c0-14.4-6.6-21.7-16.1-21.7s-16.1 7.3-16.1 21.7 6.6 21.1 16.1 21.1 16.1-6.7 16.1-21.1zM88.2 28h17.9c-.1 4.6-3.1 10.6-6.9 16.1h8.7c3.2-9.9 10.2-18.2 21.4-18.2 15.4 0 23.8 10.2 23.8 25.8V98h-19.9V55.4c0-9.2-4.3-13.2-11.2-13.2-13.9 0-14 15.1-14 22.5V98H88.2V28zM178.9 79.7V43.1h-14.7V28h14.7V6h19.9v22H217v15.1h-18.2V76c0 4.2 1.8 6.2 6.2 6.2h15.1V98h-23.4c-11.3 0-17.8-7.4-17.8-18.3zM227.5 63c0-22.1 11.8-37.1 28.8-37.1 14.4 0 20.2 9.4 23.2 16.5h8.4c-3.5-5.5-7.4-12-7.4-28.7V0h19.9v98h-18.1c0-4.9 3.2-10.2 6-14.3H280c-3.5 7-8.8 16.5-23.7 16.5-17 0-28.8-15.1-28.8-37.2zm53.9 0c0-14.8-6.7-22.1-16.7-22.1-9.2 0-16.4 5.7-16.4 22.1s7.1 22.1 16.4 22.1c9.8 0 16.7-7.3 16.7-22.1zM315.1 62.9c0-22 15.1-37 35.4-37 23.5 0 35.8 18.5 33.9 41.9H335c.6 12.3 7.1 17.4 15.7 17.4 9 0 13.3-5.6 16.2-12.2l17.8 6.9c-3.9 9-12.7 20.4-34 20.4-21.6-.1-35.6-14.5-35.6-37.4zm49.7-9.1c-.8-8.7-5.8-13.6-14.3-13.6-8 0-13.4 4.8-14.8 13.6h29.1zM429.6 69l-10.2 9.8V98h-19.9V0h19.9v30.9c0 14-3.8 19.2-10.1 24.4l5.3 5.7 32.9-33h24.4l-28.6 27.7L476.5 98h-25.1l-21.8-29z"/></g></g></svg>