<svg class="hashtag" width="113" height="26" fill="none" xmlns="http://www.w3.org/2000/svg"><path d="M1.432 25.936l1.52-7.288H0v-2.549h3.474l1.293-6.21H0v-2.55h5.29L6.81 0h2.62L7.91 7.34h5.5L14.93 0h2.636l-1.519 7.34h3.021v2.548h-3.544l-1.31 6.211h4.854v2.549h-5.38l-1.518 7.288H9.552l1.502-7.288H5.569L4.05 25.936H1.432zm4.662-9.837h5.483l1.31-6.21H7.386l-1.292 6.21zM21.346 13.245c0-7.533 5.686-12.753 12.552-12.753 6.365 0 9.977 3.644 11.264 7.358l-3.647 1.436c-1.216-3.223-3.47-5.536-7.689-5.536-4.398 0-8.654 3.224-8.654 9.46 0 6.097 3.505 9.6 8.511 9.6 4.828 0 7.51-3.223 7.724-6.166h-8.654v-3.223h12.338v12.088h-3.469c0-1.892.715-3.854 1.395-5.22h-1.681c-.68 1.821-2.825 5.71-8.69 5.71-6.616.002-11.3-4.905-11.3-12.753zM50.991.981h18.202v3.223H54.567v7.779h11.515v3.188H54.567v10.337h-3.576V.98zM72.197 21.655c6.973-4.205 12.73-8.27 12.73-13.175 0-3.188-2.038-4.835-4.54-4.835-2.719 0-4.793 1.927-4.793 5.396l-3.612-.49c.036-4.66 3.219-8.06 8.44-8.06 5.185 0 8.26 3.224 8.26 7.604 0 2.628-.93 4.87-2.61 6.832-2.145 2.418-5.972 4.87-10.943 7.604l.894 1.331c1.288-.876 2.682-1.577 5.329-1.577h7.617v3.224H72.197v-3.854zM92.974 13.175c0-8.409 4.541-12.683 10.048-12.683 5.472 0 9.978 4.274 9.978 12.683C113 21.55 108.959 26 103.022 26c-5.972.002-10.048-4.45-10.048-12.824zm16.271 0c0-5.886-2.468-9.565-6.223-9.565-3.826 0-6.294 3.68-6.294 9.565 0 6.307 2.397 9.706 6.294 9.706 3.827.002 6.223-3.364 6.223-9.706z" fill="#fff"/></svg>