<svg xmlns="http://www.w3.org/2000/svg" xmlns:xlink="http://www.w3.org/1999/xlink" viewBox="0 0 43 43"><defs><style>.cls-1{fill:none;}.cls-2{fill:#e9e9e9;}.cls-3{clip-path:url(#clip-path);}</style><clipPath id="clip-path"><rect class="cls-1" x="9.21" y="9.21" width="24.57" height="24.57"/></clipPath></defs><g id="Layer_2" data-name="Layer 2"><g id="Layer_1-2" data-name="Layer 1"><circle class="cls-2" cx="21.5" cy="21.5" r="21.5"/><g class="cls-3"><path d="M31.26,16.5c0,.21,0,.43,0,.65A14.34,14.34,0,0,1,9.21,29.22a9.87,9.87,0,0,0,1.22.06,10.06,10.06,0,0,0,6.25-2.15A5.06,5.06,0,0,1,12,23.64a7.61,7.61,0,0,0,.95.08,5.27,5.27,0,0,0,1.33-.18,5,5,0,0,1-4-4.94v-.06a5.11,5.11,0,0,0,2.28.64A5,5,0,0,1,10.24,15a5,5,0,0,1,.69-2.54,14.3,14.3,0,0,0,10.38,5.27,5.47,5.47,0,0,1-.12-1.15,5,5,0,0,1,8.71-3.45,9.9,9.9,0,0,0,3.2-1.21,5,5,0,0,1-2.21,2.77,10.2,10.2,0,0,0,2.9-.78A11,11,0,0,1,31.26,16.5Z"/></g></g></g></svg>