<svg xmlns="http://www.w3.org/2000/svg" xmlns:xlink="http://www.w3.org/1999/xlink" viewBox="0 0 43 43"><defs><style>.cls-1{fill:none;}.cls-2{fill:#e9e9e9;}.cls-3{clip-path:url(#clip-path);}</style><clipPath id="clip-path"><rect class="cls-1" x="9.98" y="10.75" width="23.8" height="21.5"/></clipPath></defs><g id="Layer_2" data-name="Layer 2"><g id="Layer_1-2" data-name="Layer 1"><circle class="cls-2" cx="21.5" cy="21.5" r="21.5"/><g class="cls-3"><path d="M32.7,16a2.88,2.88,0,0,0-2-2c-1.76-.48-8.82-.48-8.82-.48s-7,0-8.81.48a2.88,2.88,0,0,0-2,2,30.85,30.85,0,0,0-.47,5.56,30.76,30.76,0,0,0,.47,5.55,2.82,2.82,0,0,0,2,2c1.76.48,8.81.48,8.81.48s7.06,0,8.82-.48a2.82,2.82,0,0,0,2-2,30.76,30.76,0,0,0,.47-5.55A30.85,30.85,0,0,0,32.7,16Zm-13.12,9V18.11l5.9,3.41Z"/></g></g></g></svg>